<svg width="25" height="25" viewBox="0 0 25 25" fill="none" xmlns="http://www.w3.org/2000/svg">
<path d="M12.5 0C11.8985 0 11.3151 0.195313 10.8347 0.556L1.38933 7.63933C0.515633 8.29427 0 9.32423 0 10.4167V21.5273C0 23.4375 1.5625 25 3.47267 25H21.5273C23.4375 25 25 23.4375 25 21.5273V10.4167C25 9.32423 24.4844 8.29427 23.6107 7.63933L14.1653 0.556C13.6849 0.195333 13.1016 0 12.5 0ZM9.02737 11.1107H15.9727C16.1563 11.1107 16.3334 11.1849 16.4636 11.3151C16.5938 11.4453 16.6667 11.6211 16.6667 11.806C16.6667 11.9896 16.5938 12.1667 16.4636 12.2969C16.3334 12.4271 16.1563 12.5 15.9727 12.5H9.02737C8.64457 12.5 8.33337 12.1888 8.33337 11.806C8.33337 11.4219 8.64456 11.1107 9.02737 11.1107Z" fill="black"/>
</svg>
