<svg width="28" height="25" viewBox="0 0 28 25" fill="none" xmlns="http://www.w3.org/2000/svg">
<path d="M0.0663008 1.17133C0.0654792 1.01728 0.0952147 0.8646 0.153787 0.722122C0.212359 0.579643 0.298604 0.450194 0.407533 0.341265C0.516461 0.232337 0.64591 0.146092 0.788389 0.0875196C0.930868 0.0289476 1.08355 -0.00078801 1.23759 3.35861e-05H3.47482C3.9938 -0.00254178 4.50274 0.143041 4.94185 0.41968C5.38096 0.69632 5.73201 1.09253 5.95375 1.56176H26.0021C26.3016 1.56491 26.5965 1.63696 26.8637 1.77235C27.131 1.90774 27.3635 2.10283 27.5433 2.34251C27.723 2.58219 27.8452 2.86003 27.9004 3.1545C27.9555 3.44898 27.9421 3.7522 27.8613 4.04068L25.8595 11.4775C25.658 12.2241 25.2162 12.8837 24.6023 13.3541C23.9885 13.8246 23.2368 14.0798 22.4634 14.0803H8.43268L8.69916 15.4747C8.74974 15.7417 8.892 15.9825 9.10136 16.1557C9.31071 16.3288 9.57399 16.4233 9.84566 16.4229H23.926C24.2227 16.4445 24.5003 16.5776 24.7029 16.7954C24.9055 17.0133 25.0181 17.2998 25.0181 17.5973C25.0181 17.8948 24.9055 18.1813 24.7029 18.3992C24.5003 18.617 24.2227 18.7501 23.926 18.7717H9.81468C8.99704 18.7705 8.20532 18.4847 7.57544 17.9634C6.94556 17.4421 6.5168 16.7177 6.36277 15.9147L3.84666 2.65868C3.82981 2.57159 3.7838 2.49284 3.71621 2.4354C3.64862 2.37795 3.56349 2.34523 3.47482 2.34262H1.23759C1.08355 2.34344 0.930868 2.3137 0.788389 2.25513C0.64591 2.19656 0.516461 2.11031 0.407533 2.00139C0.298604 1.89246 0.212359 1.76301 0.153787 1.62053C0.0952147 1.47805 0.0654792 1.32537 0.0663008 1.17133ZM6.31939 22.6574C6.31939 22.1941 6.45678 21.7412 6.71419 21.3559C6.97159 20.9707 7.33746 20.6705 7.76551 20.4931C8.19356 20.3158 8.66457 20.2695 9.11899 20.3598C9.57341 20.4502 9.99082 20.6733 10.3184 21.001C10.6461 21.3286 10.8692 21.746 10.9595 22.2004C11.0499 22.6548 11.0035 23.1258 10.8262 23.5539C10.6489 23.9819 10.3487 24.3478 9.96345 24.6052C9.57821 24.8626 9.1253 25 8.66198 25C8.35434 25 8.04972 24.9394 7.76551 24.8217C7.48129 24.704 7.22305 24.5314 7.00552 24.3139C6.78799 24.0963 6.61544 23.8381 6.49771 23.5539C6.37998 23.2697 6.31939 22.965 6.31939 22.6574ZM22.7237 20.3148C23.345 20.3148 23.9408 20.5616 24.3801 21.001C24.8195 21.4403 25.0663 22.0361 25.0663 22.6574C25.0663 23.2787 24.8195 23.8746 24.3801 24.3139C23.9408 24.7532 23.345 25 22.7237 25C22.1024 25 21.5065 24.7532 21.0672 24.3139C20.6279 23.8746 20.3811 23.2787 20.3811 22.6574C20.3811 22.0361 20.6279 21.4403 21.0672 21.001C21.5065 20.5616 22.1024 20.3148 22.7237 20.3148Z" fill="black"/>
</svg>
