<svg width="26" height="25" viewBox="0 0 26 25" fill="none" xmlns="http://www.w3.org/2000/svg">
<path d="M13 13.2812C13.8629 13.2812 14.5625 12.5817 14.5625 11.7188C14.5625 10.8558 13.8629 10.1562 13 10.1562C12.1371 10.1562 11.4375 10.8558 11.4375 11.7188C11.4375 12.5817 12.1371 13.2812 13 13.2812Z" fill="black"/>
<path d="M23.9375 10.1562H22.874C22.6269 9.1022 22.2104 8.09524 21.6406 7.17469L22.3913 6.4232C22.6839 6.13 22.8482 5.73269 22.8482 5.31848C22.8482 4.90426 22.6839 4.50696 22.3913 4.21375L21.2862 3.10938C20.993 2.81696 20.5957 2.65276 20.1815 2.65276C19.7674 2.65276 19.3701 2.81696 19.0768 3.10938L18.3257 3.86008C17.4051 3.28989 16.398 2.87311 15.3438 2.62602V1.5625C15.3433 1.14825 15.1785 0.751094 14.8856 0.458171C14.5927 0.165248 14.1955 0.000475573 13.7812 0L12.2188 0C11.8045 0.000475573 11.4073 0.165248 11.1144 0.458171C10.8215 0.751094 10.6567 1.14825 10.6562 1.5625V2.62602C9.60202 2.87289 8.59491 3.28944 7.6743 3.85938L6.9232 3.10938C6.6299 2.81696 6.23264 2.65276 5.81848 2.65276C5.40432 2.65276 5.00705 2.81696 4.71375 3.10938L3.60938 4.21375C3.31679 4.50696 3.15247 4.90426 3.15247 5.31848C3.15247 5.73269 3.31679 6.13 3.60938 6.4232L4.36008 7.17469C3.79006 8.0952 3.37328 9.10215 3.12602 10.1562H2.0625C1.64825 10.1567 1.25109 10.3215 0.958171 10.6144C0.665248 10.9073 0.500476 11.3045 0.5 11.7188L0.5 13.2812C0.500476 13.6955 0.665248 14.0927 0.958171 14.3856C1.25109 14.6785 1.64825 14.8433 2.0625 14.8438H3.12602C3.37306 15.8978 3.7896 16.9048 4.35938 17.8253L3.60867 18.5768C3.31609 18.87 3.15177 19.2673 3.15177 19.6815C3.15177 20.0957 3.31609 20.493 3.60867 20.7862L4.71344 21.891C5.00674 22.1834 5.404 22.3476 5.81816 22.3476C6.23233 22.3476 6.62959 22.1834 6.92289 21.891L7.67398 21.1403C8.59464 21.7105 9.60187 22.1271 10.6562 22.374V23.4375C10.6567 23.8518 10.8215 24.2489 11.1144 24.5418C11.4073 24.8348 11.8045 24.9995 12.2188 25H13.7812C14.1955 24.9995 14.5927 24.8348 14.8856 24.5418C15.1785 24.2489 15.3433 23.8518 15.3438 23.4375V22.374C16.398 22.1272 17.4051 21.7106 18.3257 21.1406L19.0768 21.8913C19.3701 22.1837 19.7674 22.3479 20.1815 22.3479C20.5957 22.3479 20.993 22.1837 21.2862 21.8913L22.391 20.7866C22.6836 20.4934 22.8479 20.0961 22.8479 19.6818C22.8479 19.2676 22.6836 18.8703 22.391 18.5771L21.6403 17.8256C22.2102 16.905 22.6269 15.8979 22.874 14.8438H23.9375C24.3518 14.8433 24.7489 14.6785 25.0418 14.3856C25.3348 14.0927 25.4995 13.6955 25.5 13.2812V11.7188C25.4995 11.3045 25.3348 10.9073 25.0418 10.6144C24.7489 10.3215 24.3518 10.1567 23.9375 10.1562ZM18.2954 17.111C18.2887 17.1206 18.279 17.1277 18.272 17.137C17.6148 17.889 16.8044 18.4917 15.8951 18.9046C14.9858 19.3176 13.9987 19.5312 13.0001 19.5312C12.0014 19.5312 11.0143 19.3176 10.105 18.9046C9.19576 18.4917 8.38535 17.889 7.7282 17.137C7.72109 17.1277 7.71141 17.1206 7.70477 17.111C6.81642 16.0941 6.23969 14.8428 6.04351 13.5068C5.84733 12.1708 6.03999 10.8066 6.59847 9.57721C7.15695 8.3478 8.05763 7.30521 9.19286 6.57404C10.3281 5.84286 11.6498 5.45404 13.0002 5.45404C14.3505 5.45404 15.6722 5.84286 16.8075 6.57404C17.9427 7.30521 18.8434 8.3478 19.4018 9.57721C19.9603 10.8066 20.153 12.1708 19.9568 13.5068C19.7606 14.8428 19.1837 16.0941 18.2954 17.111Z" fill="black"/>
<path d="M13.0002 14.8437C12.3031 14.8409 11.6144 14.9948 10.9849 15.2941C10.3554 15.5934 9.80127 16.0304 9.36353 16.5729C10.3617 17.4715 11.6572 17.9688 13.0002 17.9688C14.3433 17.9688 15.6388 17.4715 16.637 16.5729C16.1992 16.0304 15.6451 15.5934 15.0155 15.294C14.386 14.9947 13.6972 14.8408 13.0002 14.8437Z" fill="black"/>
<path d="M13 7.03126C12.0262 7.02925 11.0696 7.28783 10.2295 7.78017C9.38932 8.27251 8.69619 8.98069 8.222 9.83123C7.74782 10.6818 7.50984 11.6437 7.53276 12.6172C7.55568 13.5907 7.83867 14.5404 8.35236 15.3677C8.97901 14.6572 9.76074 14.1005 10.637 13.7406C10.1485 13.18 9.87802 12.4624 9.87501 11.7188C9.87501 10.89 10.2043 10.0951 10.7903 9.50905C11.3764 8.923 12.1712 8.59376 13 8.59376C13.8288 8.59376 14.6237 8.923 15.2097 9.50905C15.7958 10.0951 16.125 10.89 16.125 11.7188C16.122 12.4624 15.8515 13.18 15.363 13.7406C16.2393 14.1005 17.021 14.6572 17.6477 15.3677C18.1614 14.5404 18.4443 13.5907 18.4673 12.6172C18.4902 11.6437 18.2522 10.6818 17.778 9.83123C17.3038 8.98069 16.6107 8.27251 15.7706 7.78017C14.9304 7.28783 13.9738 7.02925 13 7.03126Z" fill="black"/>
</svg>
