<svg width="26" height="25" viewBox="0 0 26 25" fill="none" xmlns="http://www.w3.org/2000/svg">
<path d="M9.0578 10.5186C9.6526 10.5812 10.7483 11.4265 11.0613 11.7708L11.4057 12.1152L12.6892 10.9256L12.2823 10.5499C11.9379 10.2056 11.124 9.14118 11.03 8.54638C10.8109 6.85589 11.0613 5.25932 9.02649 3.19316C6.33423 0.500898 2.98456 -0.500874 1.5132 0.970479C0.0418503 2.44183 1.04362 5.79151 3.73589 8.48377C5.77074 10.5499 7.36731 10.2682 9.0578 10.5186Z" fill="black"/>
<path d="M24.7419 24.2304C25.0863 23.886 25.4306 22.759 24.961 22.2894L14.6303 12.7413L13.3154 14.1814L22.801 24.4495C23.2705 24.9191 24.3975 24.5434 24.7419 24.2304Z" fill="black"/>
<path d="M0.730652 24.293C0.793263 24.3869 0.855873 24.4808 0.918484 24.5434C0.981095 24.606 1.07501 24.6686 1.16893 24.7313C1.63851 24.9817 2.48375 25.1695 2.85942 24.7626L3.04725 24.5434L15.4755 11.2073C15.6946 10.9882 15.9451 10.8317 16.2268 10.7377C16.446 10.6751 18.1364 10.5186 18.7312 10.2682C19.013 10.1429 19.2947 9.98642 19.5765 9.79858C20.7348 8.98464 21.58 7.76373 22.4879 6.69935C22.7383 6.4176 25.1175 3.41229 25.4932 2.9114C25.5245 2.88009 25.5245 2.81748 25.5245 2.78618C25.5245 2.75487 25.5245 2.72357 25.4932 2.72357C25.4306 2.59835 25.2741 2.56704 25.1802 2.66096C24.8358 3.03662 24.0845 3.81926 23.2705 4.69581C22.2374 5.8228 21.0478 7.07502 20.3278 7.85765C20.1713 8.04548 19.8582 8.20201 19.7643 8.01418C19.7017 7.88896 19.7956 7.73243 19.9209 7.60721L22.7383 4.22623L24.7106 1.87832C24.7732 1.69049 24.648 1.62788 24.4914 1.65918L22.2688 3.75665L19.2008 6.69935C19.0443 6.85588 18.8252 7.01241 18.6686 6.91849C18.6373 6.91849 18.606 6.85588 18.5747 6.82457C18.4808 6.66805 18.6373 6.44891 18.7939 6.29238L21.7366 3.22445L23.834 1.00177C23.8653 0.845245 23.834 0.720024 23.6149 0.782635L21.2357 2.78618L17.8547 5.60366C17.7295 5.69758 17.5729 5.8228 17.4477 5.76019C17.2599 5.66627 17.4477 5.35322 17.6043 5.19669C18.3869 4.47667 19.6391 3.28706 20.7661 2.25399C21.6426 1.40874 22.4566 0.688718 22.8009 0.344359C22.8949 0.250443 22.8636 0.0626106 22.7383 0.0313052C22.707 0.0313052 22.707 0.0313054 22.6757 0C22.6131 0 22.5818 -1.79597e-07 22.5192 0.0313052C22.0183 0.40697 19.0443 2.78618 18.7312 3.03662C17.6669 3.94448 16.446 4.78972 15.632 5.94802C15.4442 6.22977 15.2877 6.51152 15.1624 6.79327C14.912 7.38807 14.7555 9.07856 14.6929 9.2977C14.5989 9.57945 14.4424 9.82989 14.2233 10.049L0.918484 22.4147L0.699346 22.6025C0.323682 23.0095 0.480209 23.8234 0.730652 24.293Z" fill="black"/>
</svg>
